<?xml version="1.0" encoding="UTF-8" standalone="no"?>
<!-- Created with Inkscape (http://www.inkscape.org/) -->

<svg
   version="1.1"
   id="svg4756"
   width="800"
   height="800"
   viewBox="0 0 800 800"
   sodipodi:docname="strawberry-half-publicdomainvectors.org.svg"
   inkscape:version="1.2 (dc2aedaf03, 2022-05-15)"
   xmlns:inkscape="http://www.inkscape.org/namespaces/inkscape"
   xmlns:sodipodi="http://sodipodi.sourceforge.net/DTD/sodipodi-0.dtd"
   xmlns="http://www.w3.org/2000/svg"
   xmlns:svg="http://www.w3.org/2000/svg">
  <defs
     id="defs4760">
    <clipPath
       clipPathUnits="userSpaceOnUse"
       id="clipPath4774">
      <path
         d="M 0,600 H 600 V 0 H 0 Z"
         id="path4772" />
    </clipPath>
  </defs>
  <sodipodi:namedview
     id="namedview4758"
     pagecolor="#ffffff"
     bordercolor="#000000"
     borderopacity="0.25"
     inkscape:showpageshadow="2"
     inkscape:pageopacity="0.0"
     inkscape:pagecheckerboard="0"
     inkscape:deskcolor="#d1d1d1"
     showgrid="false"
     inkscape:zoom="1.04625"
     inkscape:cx="399.5221"
     inkscape:cy="400.4779"
     inkscape:window-width="1920"
     inkscape:window-height="1017"
     inkscape:window-x="-8"
     inkscape:window-y="-8"
     inkscape:window-maximized="1"
     inkscape:current-layer="g4764">
    <inkscape:page
       x="0"
       y="0"
       id="page4762"
       width="800"
       height="800" />
  </sodipodi:namedview>
  <g
     id="g4764"
     inkscape:groupmode="layer"
     inkscape:label="Page 1"
     transform="matrix(1.3333333,0,0,-1.3333333,0,800)">
    <path
       d="M 0.247,0 H 600 V 600 H 0.247 Z"
       style="fill:#3a4049;fill-opacity:1;fill-rule:nonzero;stroke:none"
       id="path4766" />
    <g
       id="g4768">
      <g
         id="g4770"
         clip-path="url(#clipPath4774)">
        <g
           id="g4776"
           transform="translate(171.2427,391.0244)">
          <path
             d="M 0,0 C 64.391,0 116.589,-42.719 116.589,-95.417 116.589,-148.113 64.391,-234.48 0,-234.48 c -64.392,0 -116.59,86.367 -116.59,139.063 C -116.59,-42.719 -64.392,0 0,0"
             style="fill:#e33d20;fill-opacity:1;fill-rule:evenodd;stroke:none"
             id="path4778" />
        </g>
        <g
           id="g4780"
           transform="translate(171.2427,391.0244)">
          <path
             d="M 0,0 C 64.391,0 116.589,-42.719 116.589,-95.417 116.589,-148.113 64.391,-234.48 0,-234.48 c -14.77,0 -28.894,4.551 -41.898,12.193 20.45,-6.48 53.412,-6.353 70.075,10.928 60.788,63.043 79.492,121.926 27.031,169.674 -2.095,-6.821 -1.436,-13.804 0.162,-20.842 -13.406,6.513 -26.812,13.026 -40.219,19.54 -12.397,-15.159 -29.939,-24.792 -54.062,-27.356 7.677,10.087 12.735,21.717 13.028,36.148 -13.477,-4.431 -27.673,-5.847 -43.323,-1.159 l 0.87,17.248 C -49.134,-6.719 -25.527,0 0,0"
             style="fill:#cd3522;fill-opacity:1;fill-rule:evenodd;stroke:none"
             id="path4782" />
        </g>
        <g
           id="g4784"
           transform="translate(175.6318,400.1436)">
          <path
             d="m 0,0 c -44.342,-13.633 -93.022,-24.363 -140.196,-8.467 27.867,-28.394 59.198,-47.231 104.085,-28.658 -3.087,-15.077 -9.835,-26.609 -19.649,-35.173 20.486,1.418 37.753,10.522 51.512,28.007 14.734,-18.135 32.706,-28.327 55.229,-27.355 -11.048,7.302 -17.451,19.618 -19.648,36.475 43.023,-15.411 81.416,-7.387 113.111,34.52 C 97.789,-30.639 50.911,-15.244 0,0"
             style="fill:#adda1a;fill-opacity:1;fill-rule:evenodd;stroke:none"
             id="path4786" />
        </g>
        <g
           id="g4788"
           transform="translate(226.6128,328.4971)">
          <path
             d="M 0,0 C -11.048,7.303 -17.451,19.618 -19.648,36.475 15.817,23.772 48.133,26.997 76.146,51.991 46.626,31.832 13.942,28.698 -21.655,42.825 -22.601,23.301 -17.293,7.798 0,0"
             style="fill:#9ac421;fill-opacity:1;fill-rule:evenodd;stroke:none"
             id="path4790" />
        </g>
        <g
           id="g4792"
           transform="translate(119.8716,327.8457)">
          <path
             d="M 0,0 C 22.182,4.986 39.24,17.757 50.565,39.243 50.88,35.498 51.196,31.752 51.512,28.007 37.753,10.522 20.486,1.417 0,0 m -30.66,29.544 c 14.864,-3.383 31.381,-2.203 50.309,5.629 0.699,3.472 1.397,6.947 2.096,10.421 C 6.66,34.236 -10.581,28.31 -30.66,29.544"
             style="fill:#9ac421;fill-opacity:1;fill-rule:evenodd;stroke:none"
             id="path4794" />
        </g>
        <g
           id="g4796"
           transform="translate(170.2778,394.4434)">
          <path
             d="m 0,0 c 10.096,36.366 -1.831,89.281 30.287,109.099 15.324,9.455 28.398,-4.348 9.119,-10.747 C 5.197,86.995 20.517,34.521 9.118,0.326 6.079,0.217 3.04,0.108 0,0"
             style="fill:#adda1a;fill-opacity:1;fill-rule:evenodd;stroke:none"
             id="path4798" />
        </g>
        <g
           id="g4800"
           transform="translate(82.9995,321.4937)">
          <path
             d="M 0,0 C 7.013,0 12.702,-5.688 12.702,-12.702 12.702,-19.33 7.71,-30.614 0,-30.614 c -7.709,0 -12.701,11.284 -12.701,17.912 C -12.701,-5.688 -7.012,0 0,0"
             style="fill:#cd3522;fill-opacity:1;fill-rule:evenodd;stroke:none"
             id="path4802" />
        </g>
        <g
           id="g4804"
           transform="translate(82.9995,317.2598)">
          <path
             d="m 0,0 c 4.676,0 8.467,-3.791 8.467,-8.468 0,-4.676 -3.791,-13.676 -8.467,-13.676 -4.676,0 -8.467,9 -8.467,13.676 C -8.467,-3.791 -4.676,0 0,0"
             style="fill:#f9de1c;fill-opacity:1;fill-rule:evenodd;stroke:none"
             id="path4806" />
        </g>
        <g
           id="g4808"
           transform="translate(80.6377,313.4814)">
          <path
             d="m 0,0 c 2.221,0 4.022,-1.8 4.022,-4.022 0,-2.22 -1.801,-6.496 -4.022,-6.496 -2.221,0 -4.022,4.276 -4.022,6.496 C -4.022,-1.8 -2.221,0 0,0"
             style="fill:#faed69;fill-opacity:1;fill-rule:evenodd;stroke:none"
             id="path4810" />
        </g>
        <g
           id="g4812"
           transform="translate(126.1709,321.4937)">
          <path
             d="m 0,0 c 7.013,0 12.701,-5.688 12.701,-12.702 0,-6.628 -4.992,-17.912 -12.701,-17.912 -7.709,0 -12.701,11.284 -12.701,17.912 C -12.701,-5.688 -7.013,0 0,0"
             style="fill:#cd3522;fill-opacity:1;fill-rule:evenodd;stroke:none"
             id="path4814" />
        </g>
        <g
           id="g4816"
           transform="translate(126.1709,317.2598)">
          <path
             d="m 0,0 c 4.676,0 8.467,-3.791 8.467,-8.468 0,-4.676 -3.791,-13.676 -8.467,-13.676 -4.676,0 -8.467,9 -8.467,13.676 C -8.467,-3.791 -4.676,0 0,0"
             style="fill:#f9de1c;fill-opacity:1;fill-rule:evenodd;stroke:none"
             id="path4818" />
        </g>
        <g
           id="g4820"
           transform="translate(123.8101,313.4814)">
          <path
             d="m 0,0 c 2.221,0 4.021,-1.8 4.021,-4.022 0,-2.22 -1.8,-6.496 -4.021,-6.496 -2.221,0 -4.022,4.276 -4.022,6.496 C -4.022,-1.8 -2.221,0 0,0"
             style="fill:#faed69;fill-opacity:1;fill-rule:evenodd;stroke:none"
             id="path4822" />
        </g>
        <g
           id="g4824"
           transform="translate(169.3428,321.4937)">
          <path
             d="m 0,0 c 7.013,0 12.702,-5.688 12.702,-12.702 0,-6.628 -4.994,-17.912 -12.702,-17.912 -7.709,0 -12.702,11.284 -12.702,17.912 C -12.702,-5.688 -7.014,0 0,0"
             style="fill:#cd3522;fill-opacity:1;fill-rule:evenodd;stroke:none"
             id="path4826" />
        </g>
        <g
           id="g4828"
           transform="translate(169.3428,317.2598)">
          <path
             d="m 0,0 c 4.675,0 8.466,-3.791 8.466,-8.468 0,-4.676 -3.791,-13.676 -8.466,-13.676 -4.676,0 -8.468,9 -8.468,13.676 C -8.468,-3.791 -4.676,0 0,0"
             style="fill:#f9de1c;fill-opacity:1;fill-rule:evenodd;stroke:none"
             id="path4830" />
        </g>
        <g
           id="g4832"
           transform="translate(166.981,313.4814)">
          <path
             d="m 0,0 c 2.221,0 4.022,-1.8 4.022,-4.022 0,-2.22 -1.801,-6.496 -4.022,-6.496 -2.221,0 -4.022,4.276 -4.022,6.496 C -4.022,-1.8 -2.221,0 0,0"
             style="fill:#faed69;fill-opacity:1;fill-rule:evenodd;stroke:none"
             id="path4834" />
        </g>
        <g
           id="g4836"
           transform="translate(212.5142,321.4937)">
          <path
             d="m 0,0 c 7.013,0 12.701,-5.688 12.701,-12.702 0,-6.628 -4.992,-17.912 -12.701,-17.912 -7.71,0 -12.701,11.284 -12.701,17.912 C -12.701,-5.688 -7.013,0 0,0"
             style="fill:#cd3522;fill-opacity:1;fill-rule:evenodd;stroke:none"
             id="path4838" />
        </g>
        <g
           id="g4840"
           transform="translate(212.5142,317.2598)">
          <path
             d="m 0,0 c 4.676,0 8.467,-3.791 8.467,-8.468 0,-4.676 -3.791,-13.676 -8.467,-13.676 -4.676,0 -8.467,9 -8.467,13.676 C -8.467,-3.791 -4.676,0 0,0"
             style="fill:#f9de1c;fill-opacity:1;fill-rule:evenodd;stroke:none"
             id="path4842" />
        </g>
        <g
           id="g4844"
           transform="translate(210.1523,313.4814)">
          <path
             d="m 0,0 c 2.222,0 4.022,-1.8 4.022,-4.022 0,-2.22 -1.8,-6.496 -4.022,-6.496 -2.221,0 -4.021,4.276 -4.021,6.496 C -4.021,-1.8 -2.221,0 0,0"
             style="fill:#faed69;fill-opacity:1;fill-rule:evenodd;stroke:none"
             id="path4846" />
        </g>
        <g
           id="g4848"
           transform="translate(255.6851,321.4937)">
          <path
             d="m 0,0 c 7.012,0 12.703,-5.688 12.703,-12.702 0,-6.628 -4.994,-17.912 -12.703,-17.912 -7.707,0 -12.702,11.284 -12.702,17.912 C -12.702,-5.688 -7.011,0 0,0"
             style="fill:#cd3522;fill-opacity:1;fill-rule:evenodd;stroke:none"
             id="path4850" />
        </g>
        <g
           id="g4852"
           transform="translate(255.6851,317.2598)">
          <path
             d="m 0,0 c 4.675,0 8.466,-3.791 8.466,-8.468 0,-4.676 -3.791,-13.676 -8.466,-13.676 -4.675,0 -8.466,9 -8.466,13.676 C -8.466,-3.791 -4.675,0 0,0"
             style="fill:#f9de1c;fill-opacity:1;fill-rule:evenodd;stroke:none"
             id="path4854" />
        </g>
        <g
           id="g4856"
           transform="translate(253.3252,313.4814)">
          <path
             d="m 0,0 c 2.22,0 4.02,-1.8 4.02,-4.022 0,-2.22 -1.8,-6.496 -4.02,-6.496 -2.222,0 -4.024,4.276 -4.024,6.496 C -4.024,-1.8 -2.222,0 0,0"
             style="fill:#faed69;fill-opacity:1;fill-rule:evenodd;stroke:none"
             id="path4858" />
        </g>
        <g
           id="g4860"
           transform="translate(103.0879,285.7402)">
          <path
             d="m 0,0 c 7.013,0 12.7,-5.688 12.7,-12.7 0,-6.632 -4.992,-17.914 -12.7,-17.914 -7.709,0 -12.702,11.282 -12.702,17.914 C -12.702,-5.688 -7.014,0 0,0"
             style="fill:#cd3522;fill-opacity:1;fill-rule:evenodd;stroke:none"
             id="path4862" />
        </g>
        <g
           id="g4864"
           transform="translate(103.0879,281.5059)">
          <path
             d="m 0,0 c 4.675,0 8.466,-3.791 8.466,-8.466 0,-4.677 -3.791,-13.68 -8.466,-13.68 -4.677,0 -8.468,9.003 -8.468,13.68 C -8.468,-3.791 -4.677,0 0,0"
             style="fill:#f9de1c;fill-opacity:1;fill-rule:evenodd;stroke:none"
             id="path4866" />
        </g>
        <g
           id="g4868"
           transform="translate(100.7261,277.7275)">
          <path
             d="m 0,0 c 2.221,0 4.022,-1.8 4.022,-4.021 0,-2.223 -1.801,-6.497 -4.022,-6.497 -2.221,0 -4.022,4.274 -4.022,6.497 C -4.022,-1.8 -2.221,0 0,0"
             style="fill:#faed69;fill-opacity:1;fill-rule:evenodd;stroke:none"
             id="path4870" />
        </g>
        <g
           id="g4872"
           transform="translate(146.1357,285.7402)">
          <path
             d="m 0,0 c 7.013,0 12.702,-5.688 12.702,-12.7 0,-6.632 -4.993,-17.914 -12.702,-17.914 -7.708,0 -12.701,11.282 -12.701,17.914 C -12.701,-5.688 -7.012,0 0,0"
             style="fill:#cd3522;fill-opacity:1;fill-rule:evenodd;stroke:none"
             id="path4874" />
        </g>
        <g
           id="g4876"
           transform="translate(146.1357,281.5059)">
          <path
             d="m 0,0 c 4.676,0 8.467,-3.791 8.467,-8.466 0,-4.677 -3.791,-13.68 -8.467,-13.68 -4.676,0 -8.467,9.003 -8.467,13.68 C -8.467,-3.791 -4.676,0 0,0"
             style="fill:#f9de1c;fill-opacity:1;fill-rule:evenodd;stroke:none"
             id="path4878" />
        </g>
        <g
           id="g4880"
           transform="translate(143.7749,277.7275)">
          <path
             d="m 0,0 c 2.221,0 4.023,-1.8 4.023,-4.021 0,-2.223 -1.802,-6.497 -4.023,-6.497 -2.221,0 -4.022,4.274 -4.022,6.497 C -4.022,-1.8 -2.221,0 0,0"
             style="fill:#faed69;fill-opacity:1;fill-rule:evenodd;stroke:none"
             id="path4882" />
        </g>
        <g
           id="g4884"
           transform="translate(189.186,285.7402)">
          <path
             d="m 0,0 c 7.013,0 12.702,-5.688 12.702,-12.7 0,-6.632 -4.993,-17.914 -12.702,-17.914 -7.709,0 -12.701,11.282 -12.701,17.914 C -12.701,-5.688 -7.013,0 0,0"
             style="fill:#cd3522;fill-opacity:1;fill-rule:evenodd;stroke:none"
             id="path4886" />
        </g>
        <g
           id="g4888"
           transform="translate(189.186,281.5059)">
          <path
             d="m 0,0 c 4.676,0 8.467,-3.791 8.467,-8.466 0,-4.677 -3.791,-13.68 -8.467,-13.68 -4.676,0 -8.467,9.003 -8.467,13.68 C -8.467,-3.791 -4.676,0 0,0"
             style="fill:#f9de1c;fill-opacity:1;fill-rule:evenodd;stroke:none"
             id="path4890" />
        </g>
        <g
           id="g4892"
           transform="translate(186.8242,277.7275)">
          <path
             d="m 0,0 c 2.221,0 4.022,-1.8 4.022,-4.021 0,-2.223 -1.801,-6.497 -4.022,-6.497 -2.221,0 -4.022,4.274 -4.022,6.497 C -4.022,-1.8 -2.221,0 0,0"
             style="fill:#faed69;fill-opacity:1;fill-rule:evenodd;stroke:none"
             id="path4894" />
        </g>
        <g
           id="g4896"
           transform="translate(232.2354,285.7402)">
          <path
             d="m 0,0 c 7.013,0 12.702,-5.688 12.702,-12.7 0,-6.632 -4.994,-17.914 -12.702,-17.914 -7.709,0 -12.701,11.282 -12.701,17.914 C -12.701,-5.688 -7.014,0 0,0"
             style="fill:#cd3522;fill-opacity:1;fill-rule:evenodd;stroke:none"
             id="path4898" />
        </g>
        <g
           id="g4900"
           transform="translate(232.2354,281.5059)">
          <path
             d="m 0,0 c 4.675,0 8.467,-3.791 8.467,-8.466 0,-4.677 -3.792,-13.68 -8.467,-13.68 -4.676,0 -8.467,9.003 -8.467,13.68 C -8.467,-3.791 -4.676,0 0,0"
             style="fill:#f9de1c;fill-opacity:1;fill-rule:evenodd;stroke:none"
             id="path4902" />
        </g>
        <g
           id="g4904"
           transform="translate(229.8735,277.7275)">
          <path
             d="m 0,0 c 2.221,0 4.022,-1.8 4.022,-4.021 0,-2.223 -1.801,-6.497 -4.022,-6.497 -2.221,0 -4.022,4.274 -4.022,6.497 C -4.022,-1.8 -2.221,0 0,0"
             style="fill:#faed69;fill-opacity:1;fill-rule:evenodd;stroke:none"
             id="path4906" />
        </g>
        <g
           id="g4908"
           transform="translate(102.791,245.5127)">
          <path
             d="m 0,0 c 7.013,0 12.701,-5.689 12.701,-12.702 0,-6.628 -4.992,-17.911 -12.701,-17.911 -7.709,0 -12.701,11.283 -12.701,17.911 C -12.701,-5.689 -7.013,0 0,0"
             style="fill:#cd3522;fill-opacity:1;fill-rule:evenodd;stroke:none"
             id="path4910" />
        </g>
        <g
           id="g4912"
           transform="translate(102.791,241.2793)">
          <path
             d="m 0,0 c 4.676,0 8.467,-3.791 8.467,-8.469 0,-4.675 -3.791,-13.677 -8.467,-13.677 -4.676,0 -8.467,9.002 -8.467,13.677 C -8.467,-3.791 -4.676,0 0,0"
             style="fill:#f9de1c;fill-opacity:1;fill-rule:evenodd;stroke:none"
             id="path4914" />
        </g>
        <g
           id="g4916"
           transform="translate(100.4302,237.501)">
          <path
             d="m 0,0 c 2.221,0 4.021,-1.803 4.021,-4.023 0,-2.219 -1.8,-6.496 -4.021,-6.496 -2.222,0 -4.022,4.277 -4.022,6.496 0,2.22 1.8,4.023 4.022,4.023"
             style="fill:#faed69;fill-opacity:1;fill-rule:evenodd;stroke:none"
             id="path4918" />
        </g>
        <g
           id="g4920"
           transform="translate(149.6323,245.5127)">
          <path
             d="m 0,0 c 7.013,0 12.701,-5.689 12.701,-12.702 0,-6.628 -4.992,-17.911 -12.701,-17.911 -7.709,0 -12.701,11.283 -12.701,17.911 C -12.701,-5.689 -7.014,0 0,0"
             style="fill:#cd3522;fill-opacity:1;fill-rule:evenodd;stroke:none"
             id="path4922" />
        </g>
        <g
           id="g4924"
           transform="translate(149.6323,241.2793)">
          <path
             d="m 0,0 c 4.676,0 8.467,-3.791 8.467,-8.469 0,-4.675 -3.791,-13.677 -8.467,-13.677 -4.676,0 -8.467,9.002 -8.467,13.677 C -8.467,-3.791 -4.676,0 0,0"
             style="fill:#f9de1c;fill-opacity:1;fill-rule:evenodd;stroke:none"
             id="path4926" />
        </g>
        <g
           id="g4928"
           transform="translate(147.2705,237.501)">
          <path
             d="m 0,0 c 2.221,0 4.022,-1.803 4.022,-4.023 0,-2.219 -1.801,-6.496 -4.022,-6.496 -2.221,0 -4.022,4.277 -4.022,6.496 C -4.022,-1.803 -2.221,0 0,0"
             style="fill:#faed69;fill-opacity:1;fill-rule:evenodd;stroke:none"
             id="path4930" />
        </g>
        <g
           id="g4932"
           transform="translate(196.4727,245.5127)">
          <path
             d="m 0,0 c 7.014,0 12.701,-5.689 12.701,-12.702 0,-6.628 -4.992,-17.911 -12.701,-17.911 -7.71,0 -12.702,11.283 -12.702,17.911 C -12.702,-5.689 -7.013,0 0,0"
             style="fill:#cd3522;fill-opacity:1;fill-rule:evenodd;stroke:none"
             id="path4934" />
        </g>
        <g
           id="g4936"
           transform="translate(196.4727,241.2793)">
          <path
             d="m 0,0 c 4.676,0 8.467,-3.791 8.467,-8.469 0,-4.675 -3.791,-13.677 -8.467,-13.677 -4.676,0 -8.467,9.002 -8.467,13.677 C -8.467,-3.791 -4.676,0 0,0"
             style="fill:#f9de1c;fill-opacity:1;fill-rule:evenodd;stroke:none"
             id="path4938" />
        </g>
        <g
           id="g4940"
           transform="translate(194.1113,237.501)">
          <path
             d="m 0,0 c 2.221,0 4.023,-1.803 4.023,-4.023 0,-2.219 -1.802,-6.496 -4.023,-6.496 -2.221,0 -4.022,4.277 -4.022,6.496 C -4.022,-1.803 -2.221,0 0,0"
             style="fill:#faed69;fill-opacity:1;fill-rule:evenodd;stroke:none"
             id="path4942" />
        </g>
        <g
           id="g4944"
           transform="translate(243.3135,245.5127)">
          <path
             d="m 0,0 c 7.014,0 12.7,-5.689 12.7,-12.702 0,-6.628 -4.991,-17.911 -12.7,-17.911 -7.709,0 -12.701,11.283 -12.701,17.911 C -12.701,-5.689 -7.013,0 0,0"
             style="fill:#cd3522;fill-opacity:1;fill-rule:evenodd;stroke:none"
             id="path4946" />
        </g>
        <g
           id="g4948"
           transform="translate(243.3135,241.2793)">
          <path
             d="m 0,0 c 4.677,0 8.468,-3.791 8.468,-8.469 0,-4.675 -3.791,-13.677 -8.468,-13.677 -4.676,0 -8.467,9.002 -8.467,13.677 C -8.467,-3.791 -4.676,0 0,0"
             style="fill:#f9de1c;fill-opacity:1;fill-rule:evenodd;stroke:none"
             id="path4950" />
        </g>
        <g
           id="g4952"
           transform="translate(240.9517,237.501)">
          <path
             d="m 0,0 c 2.222,0 4.022,-1.803 4.022,-4.023 0,-2.219 -1.8,-6.496 -4.022,-6.496 -2.221,0 -4.021,4.277 -4.021,6.496 0,2.22 1.8,4.023 4.021,4.023"
             style="fill:#faed69;fill-opacity:1;fill-rule:evenodd;stroke:none"
             id="path4954" />
        </g>
        <g
           id="g4956"
           transform="translate(130.9561,209.1406)">
          <path
             d="m 0,0 c 7.014,0 12.701,-5.69 12.701,-12.704 0,-6.628 -4.992,-17.912 -12.701,-17.912 -7.708,0 -12.701,11.284 -12.701,17.912 C -12.701,-5.69 -7.013,0 0,0"
             style="fill:#cd3522;fill-opacity:1;fill-rule:evenodd;stroke:none"
             id="path4958" />
        </g>
        <g
           id="g4960"
           transform="translate(130.9561,204.9043)">
          <path
             d="m 0,0 c 4.676,0 8.467,-3.791 8.467,-8.468 0,-4.674 -3.791,-13.676 -8.467,-13.676 -4.676,0 -8.467,9.002 -8.467,13.676 C -8.467,-3.791 -4.676,0 0,0"
             style="fill:#f9de1c;fill-opacity:1;fill-rule:evenodd;stroke:none"
             id="path4962" />
        </g>
        <g
           id="g4964"
           transform="translate(128.5952,201.126)">
          <path
             d="m 0,0 c 2.221,0 4.022,-1.8 4.022,-4.02 0,-2.222 -1.801,-6.499 -4.022,-6.499 -2.221,0 -4.022,4.277 -4.022,6.499 C -4.022,-1.8 -2.221,0 0,0"
             style="fill:#faed69;fill-opacity:1;fill-rule:evenodd;stroke:none"
             id="path4966" />
        </g>
        <g
           id="g4968"
           transform="translate(172.6729,209.1406)">
          <path
             d="m 0,0 c 7.014,0 12.702,-5.69 12.702,-12.704 0,-6.628 -4.993,-17.912 -12.702,-17.912 -7.708,0 -12.701,11.284 -12.701,17.912 C -12.701,-5.69 -7.013,0 0,0"
             style="fill:#cd3522;fill-opacity:1;fill-rule:evenodd;stroke:none"
             id="path4970" />
        </g>
        <g
           id="g4972"
           transform="translate(172.6729,204.9043)">
          <path
             d="m 0,0 c 4.676,0 8.467,-3.791 8.467,-8.468 0,-4.674 -3.791,-13.676 -8.467,-13.676 -4.675,0 -8.467,9.002 -8.467,13.676 C -8.467,-3.791 -4.675,0 0,0"
             style="fill:#f9de1c;fill-opacity:1;fill-rule:evenodd;stroke:none"
             id="path4974" />
        </g>
        <g
           id="g4976"
           transform="translate(170.312,201.126)">
          <path
             d="m 0,0 c 2.221,0 4.022,-1.8 4.022,-4.02 0,-2.222 -1.801,-6.499 -4.022,-6.499 -2.221,0 -4.022,4.277 -4.022,6.499 C -4.022,-1.8 -2.221,0 0,0"
             style="fill:#faed69;fill-opacity:1;fill-rule:evenodd;stroke:none"
             id="path4978" />
        </g>
        <g
           id="g4980"
           transform="translate(214.3896,209.1406)">
          <path
             d="m 0,0 c 7.013,0 12.701,-5.69 12.701,-12.704 0,-6.628 -4.992,-17.912 -12.701,-17.912 -7.709,0 -12.702,11.284 -12.702,17.912 C -12.702,-5.69 -7.013,0 0,0"
             style="fill:#cd3522;fill-opacity:1;fill-rule:evenodd;stroke:none"
             id="path4982" />
        </g>
        <g
           id="g4984"
           transform="translate(214.3896,204.9043)">
          <path
             d="m 0,0 c 4.676,0 8.467,-3.791 8.467,-8.468 0,-4.674 -3.791,-13.676 -8.467,-13.676 -4.676,0 -8.467,9.002 -8.467,13.676 C -8.467,-3.791 -4.676,0 0,0"
             style="fill:#f9de1c;fill-opacity:1;fill-rule:evenodd;stroke:none"
             id="path4986" />
        </g>
        <g
           id="g4988"
           transform="translate(212.0273,201.126)">
          <path
             d="m 0,0 c 2.222,0 4.023,-1.8 4.023,-4.02 0,-2.222 -1.801,-6.499 -4.023,-6.499 -2.221,0 -4.022,4.277 -4.022,6.499 C -4.022,-1.8 -2.221,0 0,0"
             style="fill:#faed69;fill-opacity:1;fill-rule:evenodd;stroke:none"
             id="path4990" />
        </g>
        <g
           id="g4992"
           transform="translate(416.7568,391.0244)">
          <path
             d="m 0,0 c 64.39,0 116.59,-42.719 116.59,-95.417 0,-52.696 -52.2,-139.063 -116.59,-139.063 -64.392,0 -116.591,86.367 -116.591,139.063 C -116.591,-42.719 -64.392,0 0,0"
             style="fill:#e33d20;fill-opacity:1;fill-rule:evenodd;stroke:none"
             id="path4994" />
        </g>
        <g
           id="g4996"
           transform="translate(416.7568,391.0244)">
          <path
             d="M 0,0 C 51.648,0 93.516,-42.719 93.516,-95.417 93.516,-148.113 51.648,-234.48 0,-234.48 c -51.648,0 -93.517,86.367 -93.517,139.063 C -93.517,-42.719 -51.648,0 0,0"
             style="fill:#f25838;fill-opacity:1;fill-rule:evenodd;stroke:none"
             id="path4998" />
        </g>
        <g
           id="g5000"
           transform="translate(416.7568,379.9434)">
          <path
             d="m 0,0 c 27.368,0 49.555,-38.682 49.555,-86.398 0,-47.716 -22.187,-125.919 -49.555,-125.919 -27.37,0 -49.556,78.203 -49.556,125.919 C -49.556,-38.682 -27.37,0 0,0"
             style="fill:#f89f89;fill-opacity:1;fill-rule:evenodd;stroke:none"
             id="path5002" />
        </g>
        <g
           id="g5004"
           transform="translate(416.7568,347.8501)">
          <path
             d="m 0,0 c 19.093,0 34.573,-26.986 34.573,-60.278 0,-33.292 -15.48,-87.854 -34.573,-87.854 -19.095,0 -34.574,54.562 -34.574,87.854 C -34.574,-26.986 -19.095,0 0,0"
             style="fill:#e33d20;fill-opacity:1;fill-rule:evenodd;stroke:none"
             id="path5006" />
        </g>
        <g
           id="g5008"
           transform="translate(416.7568,354.6943)">
          <path
             d="m 0,0 c 12.798,0 23.172,-21.283 23.172,-47.536 0,-26.254 -10.374,-69.282 -23.172,-69.282 -12.8,0 -23.176,43.028 -23.176,69.282 C -23.176,-21.283 -12.8,0 0,0"
             style="fill:#f89f89;fill-opacity:1;fill-rule:evenodd;stroke:none"
             id="path5010" />
        </g>
        <g
           id="g5012"
           transform="translate(421.1455,400.1436)">
          <path
             d="m 0,0 c -44.342,-13.633 -93.022,-24.363 -140.196,-8.467 27.867,-28.394 59.197,-47.231 104.085,-28.658 -3.087,-15.077 -9.836,-26.609 -19.649,-35.173 20.487,1.418 37.753,10.522 51.512,28.007 14.735,-18.135 32.706,-28.327 55.23,-27.355 -11.049,7.302 -17.452,19.618 -19.651,36.475 43.026,-15.411 81.419,-7.387 113.114,34.52 C 97.79,-30.639 50.911,-15.244 0,0"
             style="fill:#adda1a;fill-opacity:1;fill-rule:evenodd;stroke:none"
             id="path5014" />
        </g>
        <g
           id="g5016"
           transform="translate(472.127,328.4971)">
          <path
             d="M 0,0 C -11.049,7.303 -17.451,19.618 -19.65,36.475 15.814,23.772 48.131,26.997 76.146,51.991 46.626,31.832 13.942,28.698 -21.656,42.825 -22.602,23.301 -17.293,7.798 0,0"
             style="fill:#9ac421;fill-opacity:1;fill-rule:evenodd;stroke:none"
             id="path5018" />
        </g>
        <g
           id="g5020"
           transform="translate(365.3857,327.8457)">
          <path
             d="M 0,0 C 22.182,4.986 39.239,17.757 50.565,39.243 50.88,35.498 51.195,31.752 51.512,28.007 37.753,10.522 20.486,1.417 0,0 m -30.66,29.544 c 14.864,-3.383 31.381,-2.203 50.308,5.629 0.7,3.472 1.398,6.947 2.095,10.421 C 6.658,34.236 -10.582,28.31 -30.66,29.544"
             style="fill:#9ac421;fill-opacity:1;fill-rule:evenodd;stroke:none"
             id="path5022" />
        </g>
        <g
           id="g5024"
           transform="translate(415.792,394.4434)">
          <path
             d="M 0,0 C 10.095,36.366 -1.834,89.281 30.286,109.099 45.61,118.554 58.685,104.751 39.405,98.352 5.197,86.995 20.516,34.521 9.117,0.326 6.079,0.217 3.039,0.108 0,0"
             style="fill:#adda1a;fill-opacity:1;fill-rule:evenodd;stroke:none"
             id="path5026" />
        </g>
        <g
           id="g5028"
           transform="translate(170.8979,107.5898)">
          <path
             d="M 0,0 C 32.287,0 58.621,4.682 58.621,10.421 58.621,16.16 32.287,20.842 0,20.842 -32.287,20.842 -58.621,16.16 -58.621,10.421 -58.621,4.682 -32.287,0 0,0"
             style="fill:#282c31;fill-opacity:1;fill-rule:evenodd;stroke:none"
             id="path5030" />
        </g>
        <g
           id="g5032"
           transform="translate(417.7539,107.5898)">
          <path
             d="M 0,0 C 32.286,0 58.622,4.682 58.622,10.421 58.622,16.16 32.286,20.842 0,20.842 -32.287,20.842 -58.62,16.16 -58.62,10.421 -58.62,4.682 -32.287,0 0,0"
             style="fill:#282c31;fill-opacity:1;fill-rule:evenodd;stroke:none"
             id="path5034" />
        </g>
      </g>
    </g>
  </g>
</svg>
